HIERARCHY
ROOT Hips
{
	OFFSET 0.00000 0.00000 0.00000
	CHANNELS 6 Xposition Yposition Zposition Zrotation Yrotation Xrotation 
	JOINT LHipJoint
	{
		OFFSET 0 0 0
		CHANNELS 3 Zrotation Yrotation Xrotation
		JOINT LeftUpLeg
		{
			OFFSET 1.53139 -1.83434 0.76626
			CHANNELS 3 Zrotation Yrotation Xrotation
			JOINT LeftLeg
			{
				OFFSET 2.56112 -7.03663 0.00000
				CHANNELS 3 Zrotation Yrotation Xrotation
				JOINT LeftFoot
				{
					OFFSET 2.59983 -7.14299 0.00000
					CHANNELS 3 Zrotation Yrotation Xrotation
					JOINT LeftToeBase
					{
						OFFSET 0.13742 -0.37757 2.00054
						CHANNELS 3 Zrotation Yrotation Xrotation
						End Site
						{
							OFFSET 0.00000 -0.00000 1.02897
						}
					}
				}
			}
		}
	}
	JOINT RHipJoint
	{
		OFFSET 0 0 0
		CHANNELS 3 Zrotation Yrotation Xrotation
		JOINT RightUpLeg
		{
			OFFSET -1.40122 -1.83435 0.76627
			CHANNELS 3 Zrotation Yrotation Xrotation
			JOINT RightLeg
			{
				OFFSET -2.54052 -6.98003 0.00000
				CHANNELS 3 Zrotation Yrotation Xrotation
				JOINT RightFoot
				{
					OFFSET -2.63179 -7.23079 0.00000
					CHANNELS 3 Zrotation Yrotation Xrotation
					JOINT RightToeBase
					{
						OFFSET -0.24131 -0.66299 2.03908
						CHANNELS 3 Zrotation Yrotation Xrotation
						End Site
						{
							OFFSET -0.00000 -0.00000 1.07391
						}
					}
				}
			}
		}
	}
	JOINT LowerBack
	{
		OFFSET 0 0 0
		CHANNELS 3 Zrotation Yrotation Xrotation
		JOINT Spine
		{
			OFFSET 0.01174 2.10302 -0.29778
			CHANNELS 3 Zrotation Yrotation Xrotation
			JOINT Spine1
			{
				OFFSET 0.00772 2.13227 -0.01247
				CHANNELS 3 Zrotation Yrotation Xrotation
				JOINT Neck
				{
					OFFSET 0 0 0
					CHANNELS 3 Zrotation Yrotation Xrotation
					JOINT Neck1
					{
						OFFSET -0.09219 1.60848 0.31481
						CHANNELS 3 Zrotation Yrotation Xrotation
						JOINT Head
						{
							OFFSET 0.13974 1.65456 -0.31134
							CHANNELS 3 Zrotation Yrotation Xrotation
							End Site
							{
								OFFSET 0.04742 1.69515 -0.14578
							}
						}
					}
				}
				JOINT LeftShoulder
				{
					OFFSET 0 0 0
					CHANNELS 3 Zrotation Yrotation Xrotation
					JOINT LeftArm
					{
						OFFSET 3.24909 1.02882 -0.23993
						CHANNELS 3 Zrotation Yrotation Xrotation
						JOINT LeftForeArm
						{
							OFFSET 5.32955 -0.00000 -0.00000
							CHANNELS 3 Zrotation Yrotation Xrotation
							JOINT LeftHand
							{
								OFFSET 3.69232 -0.00000 -0.00000
								CHANNELS 3 Zrotation Yrotation Xrotation
								JOINT LeftFingerBase
								{
									OFFSET 0 0 0
									CHANNELS 3 Zrotation Yrotation Xrotation
									JOINT LeftHandIndex1
									{
										OFFSET 0.53660 -0.00000 -0.00000
										CHANNELS 3 Zrotation Yrotation Xrotation
										End Site
										{
											OFFSET 0.43262 -0.00000 -0.00000
										}
									}
								}
								JOINT LThumb
								{
									OFFSET 0 0 0
									CHANNELS 3 Zrotation Yrotation Xrotation
									End Site
									{
										OFFSET 0.43922 -0.00000 0.43922
									}
								}
							}
						}
					}
				}
				JOINT RightShoulder
				{
					OFFSET 0 0 0
					CHANNELS 3 Zrotation Yrotation Xrotation
					JOINT RightArm
					{
						OFFSET -3.21387 0.93002 -0.34594
						CHANNELS 3 Zrotation Yrotation Xrotation
						JOINT RightForeArm
						{
							OFFSET -5.23431 -0.00000 0.00000
							CHANNELS 3 Zrotation Yrotation Xrotation
							JOINT RightHand
							{
								OFFSET -3.55301 -0.00000 -0.00000
								CHANNELS 3 Zrotation Yrotation Xrotation
								JOINT RightFingerBase
								{
									OFFSET 0 0 0
									CHANNELS 3 Zrotation Yrotation Xrotation
									JOINT RightHandIndex1
									{
										OFFSET -0.77252 -0.00000 -0.00000
										CHANNELS 3 Zrotation Yrotation Xrotation
										End Site
										{
											OFFSET -0.62283 -0.00000 -0.00000
										}
									}
								}
								JOINT RThumb
								{
									OFFSET 0 0 0
									CHANNELS 3 Zrotation Yrotation Xrotation
									End Site
									{
										OFFSET -0.63234 -0.00000 0.63234
									}
								}
							}
						}
					}
				}
			}
		}
	}
}
MOTION
Frames: 6
Frame Time: .0083333
15.476 17.9739 -10.643 0 0 0 0 0 0 -21 0 0 0 0 0 0 0 0 0 0 0 0 0 0 21 0 0 0 0 0 0 0 0 0 0 0 0 0 0 0 0 0 0 0 0 0 0 -16 0 0 21 0 0 11 0 0 0 -8 0 0 0 0 0 0 0 0 0 0 0 0 0 0 0 0 0 0 0 0 8 0 0 0 0 0 0 0 0 0 0 0 0 0 0 0 0 0
15.4760 17.9739 -10.6430 2.7434 -44.8227 1.3405 0.0000 0.0000 0.0000 -24.6419 -3.7557 -4.2331 1.4336 7.5704 21.4166 0.6628 -1.9877 -14.8295 0.1092 -2.1303 -5.8659 0.0000 0.0000 0.0000 22.4409 7.8724 -7.9905 -3.1692 -10.9640 32.1585 -1.3823 0.4877 -22.0867 -0.0000 0.0217 -0.0596 -1.7902 0.0228 4.4003 0.8188 -0.0533 -2.5381 1.8584 0.0486 -5.0958 -11.4910 -4.1942 -21.8092 7.8848 -4.1376 22.4018 4.1543 -1.9047 11.3075 0.0000 -0.0000 0.0000 -89.5272 6.4673 22.9290 16.7986 -26.5915 -3.9968 -0.0000 -0.0000 5.1063 14.5102 26.4902 6.5851 -7.1250 0.0000 -0.0000 -16.8827 56.4114 -4.8200 0.0000 -0.0000 0.0000 88.7611 -3.7470 18.7276 -15.2351 24.4726 -3.3227 0.0000 0.0000 10.4355 -14.0934 11.1995 -2.7917 7.1250 -0.0000 -0.0000 9.1433 -18.5239 5.8395
15.4750 17.9744 -10.6409 2.3588 -44.9966 1.6116 0.0000 0.0000 0.0000 -24.3679 -3.8602 -4.2290 1.4540 7.6217 21.5709 0.6670 -1.8698 -14.9030 0.0876 -1.9092 -5.2549 0.0000 0.0000 0.0000 22.7562 7.9666 -7.8897 -3.1419 -10.9214 32.0151 -1.3908 0.5518 -22.1348 -0.0000 -0.0358 0.0985 -1.4434 0.1442 4.3735 0.8567 0.1339 -2.5171 1.6863 0.1297 -5.0656 -11.6353 -4.2488 -21.6002 8.0615 -4.2288 22.2042 4.2254 -1.9374 11.2119 0.0000 0.0000 0.0000 -89.5529 6.4809 22.8520 16.8459 -26.6541 -4.0180 -0.0000 -0.0000 5.2830 14.8914 26.3058 6.7210 -7.1250 0.0000 -0.0000 -16.3867 56.3115 -4.6328 0.0000 0.0000 0.0000 88.8466 -3.7812 18.4453 -15.2542 24.4990 -3.3306 0.0000 0.0000 10.4947 -14.1032 10.8251 -2.7016 7.1250 -0.0000 -0.0000 9.1444 -18.9034 5.7623
15.4727 17.9726 -10.6430 2.3268 -44.9372 1.5598 0.0000 0.0000 0.0000 -24.3464 -3.9408 -4.1439 1.4619 7.6416 21.6307 0.6694 -1.7925 -14.9484 0.1092 -2.1306 -5.8667 0.0000 0.0000 0.0000 22.7859 7.7747 -7.8635 -3.1368 -10.9132 31.9878 -1.3853 0.6098 -22.0730 -0.0003 -0.1094 0.3006 -1.4417 0.1587 4.4667 0.8692 0.1532 -2.4953 1.6967 0.1396 -5.0968 -11.7235 -4.2779 -21.5189 8.1457 -4.2700 22.1508 4.2639 -1.9542 11.1856 -0.0000 -0.0000 0.0000 -89.5628 6.5312 22.8806 16.8724 -26.6892 -4.0298 -0.0000 -0.0000 5.3498 14.7541 26.1676 6.6246 -7.1250 0.0000 -0.0000 -16.4479 56.1501 -4.5859 -0.0000 -0.0000 0.0000 88.8397 -3.8466 18.4882 -15.2760 24.5292 -3.3397 0.0000 0.0000 10.4186 -14.2183 10.6380 -2.6780 7.1250 -0.0000 -0.0000 9.0676 -19.0867 5.6752
15.4736 17.9705 -10.6407 1.8984 -44.9472 1.7057 0.0000 0.0000 0.0000 -24.0319 -3.9502 -3.9291 1.4575 7.6305 21.5974 0.6583 -1.6503 -14.8521 0.1011 -2.0508 -5.6459 0.0000 0.0000 0.0000 23.1357 7.6107 -7.7407 -3.1391 -10.9169 32.0000 -1.3884 0.6528 -22.0843 -0.0003 -0.1094 0.3007 -1.0642 0.1520 4.5967 0.9436 0.1719 -2.4375 1.5600 0.1371 -5.1097 -11.7812 -4.2661 -21.5246 8.2157 -4.2568 22.2300 4.3045 -1.9460 11.2178 -0.0000 0.0000 0.0000 -89.6557 6.5979 22.6085 16.9071 -26.7352 -4.0455 -0.0000 -0.0000 5.6198 14.4862 26.0993 6.4844 -7.1250 0.0000 -0.0000 -16.6820 56.0301 -4.6047 -0.0000 0.0000 0.0000 88.8180 -3.8660 18.5330 -15.2658 24.5151 -3.3355 0.0000 0.0000 10.5061 -14.2919 10.6351 -2.6917 7.1250 -0.0000 -0.0000 9.0158 -19.0855 5.6422
15.4713 17.9728 -10.6426 2.5682 -44.9109 1.4390 0.0000 0.0000 0.0000 -24.6019 -4.3570 -3.9415 1.4414 7.5902 21.4760 0.6365 -1.2778 -14.6885 0.0750 -1.7661 -4.8598 0.0000 0.0000 0.0000 22.5428 7.6039 -8.0437 -3.1589 -10.9479 32.1043 -1.3973 0.8338 -22.1014 -0.0009 -0.1925 0.5289 -1.5204 0.1820 4.3610 0.7627 0.1757 -2.4646 1.6283 0.1505 -5.0052 -11.3873 -4.2499 -21.7396 7.8477 -4.2551 22.4598 4.1049 -1.9559 11.3260 0.0000 -0.0000 0.0000 -89.5866 6.6011 22.7358 16.7624 -26.5435 -3.9806 -0.0000 -0.0000 6.2835 15.5468 25.1865 6.7521 -7.1250 0.0000 -0.0000 -15.1058 55.3558 -3.9052 0.0000 -0.0000 0.0000 88.9199 -3.8278 18.4048 -15.2341 24.4713 -3.3223 0.0000 0.0000 10.5001 -14.4199 10.6323 -2.7161 7.1250 -0.0000 -0.0000 8.9256 -19.0808 5.5853
